HIERARCHY
ROOT Hips
{
 OFFSET 0.000000 0.000000 0.000000
 CHANNELS 6 Xposition Yposition Zposition Yrotation Xrotation Zrotation
 JOINT Chest
 {
  OFFSET 0.000000 9.585900 0.002600
  CHANNELS 3 Yrotation Xrotation Zrotation
  JOINT Chest2
  {
   OFFSET 0.000000 9.601200 -0.005300
   CHANNELS 3 Yrotation Xrotation Zrotation
   JOINT Chest3
   {
    OFFSET 0.000000 9.561800 0.000000
    CHANNELS 3 Yrotation Xrotation Zrotation
    JOINT Chest4
    {
     OFFSET 0.000000 9.552100 0.000000
     CHANNELS 3 Yrotation Xrotation Zrotation
     JOINT Neck
     {
      OFFSET 0.000000 14.453000 0.000000
      CHANNELS 3 Yrotation Xrotation Zrotation
      JOINT Head
      {
       OFFSET 0.000000 8.936500 -0.011300
       CHANNELS 3 Yrotation Xrotation Zrotation
       End Site
       {
        OFFSET 0.000000 17.073600 -0.006000
       }
      }
     }
     JOINT RightCollar
     {
      OFFSET -2.921100 9.558500 0.000000
      CHANNELS 3 Yrotation Xrotation Zrotation
      JOINT RightShoulder
      {
       OFFSET -13.519700 0.000000 0.000000
       CHANNELS 3 Yrotation Xrotation Zrotation
       JOINT RightElbow
       {
        OFFSET 0.000000 -29.696600 0.000000
        CHANNELS 3 Yrotation Xrotation Zrotation
        JOINT RightWrist
        {
         OFFSET 0.000000 -24.004700 0.000000
         CHANNELS 3 Yrotation Xrotation Zrotation
         End Site
         {
          OFFSET 0.000000 -17.728500 0.000000
         }
        }
       }
      }
     }
     JOINT LeftCollar
     {
      OFFSET 2.921100 9.558500 0.000000
      CHANNELS 3 Yrotation Xrotation Zrotation
      JOINT LeftShoulder
      {
       OFFSET 13.519700 0.000000 0.000000
       CHANNELS 3 Yrotation Xrotation Zrotation
       JOINT LeftElbow
       {
        OFFSET 0.000000 -29.696600 0.000000
        CHANNELS 3 Yrotation Xrotation Zrotation
        JOINT LeftWrist
        {
         OFFSET 0.000000 -24.004700 0.000000
         CHANNELS 3 Yrotation Xrotation Zrotation
         End Site
         {
          OFFSET 0.000000 -17.728500 0.000000
         }
        }
       }
      }
     }
    }
   }
  }
 }
 JOINT RightHip
 {
  OFFSET -7.771700 -0.012900 -0.001300
  CHANNELS 3 Yrotation Xrotation Zrotation
  JOINT RightKnee
  {
   OFFSET 0.000000 -40.869800 0.001200
   CHANNELS 3 Yrotation Xrotation Zrotation
   JOINT RightAnkle
   {
    OFFSET 0.000000 -39.717900 0.002100
    CHANNELS 3 Yrotation Xrotation Zrotation
    JOINT RightToe
    {
     OFFSET 0.000000 -4.965400 11.033500
     CHANNELS 3 Yrotation Xrotation Zrotation
     End Site
     {
      OFFSET 0.000000 -1.423100 5.872300
     }
    }
   }
  }
 }
 JOINT LeftHip
 {
  OFFSET 7.771700 -0.012900 -0.001300
  CHANNELS 3 Yrotation Xrotation Zrotation
  JOINT LeftKnee
  {
   OFFSET 0.000000 -40.869800 0.001200
   CHANNELS 3 Yrotation Xrotation Zrotation
   JOINT LeftAnkle
   {
    OFFSET 0.000000 -39.717900 0.002100
    CHANNELS 3 Yrotation Xrotation Zrotation
    JOINT LeftToe
    {
     OFFSET 0.000000 -4.965400 11.033500
     CHANNELS 3 Yrotation Xrotation Zrotation
     End Site
     {
      OFFSET 0.000000 -1.423100 5.872300
     }
    }
   }
  }
 }
}
MOTION
Frames: 14
Frame Time: 0.008333
-7.157447 51.170934 31.675332 177.424679 -34.871518 -9.949513 0.929136 13.391941 3.612405 0.397438 7.658381 2.089714 0.542258 9.570343 2.626539 0.379270 7.704986 2.101421 4.210237 18.499504 -1.309908 4.781236 -6.046966 -2.341845 1.366552 0.798612 -2.365472 -11.920044 -8.322148 8.904428 18.259275 -74.271046 -4.026887 8.253784 -7.687908 -14.994245 -9.591904 3.506756 -3.035575 5.837388 -3.158100 -2.449424 -67.469146 -76.688996 74.842139 11.263178 -10.709846 -2.697646 -9.147191 -33.461124 7.001525 23.105710 82.352398 18.623172 -3.337013 -6.824821 -1.338363 -0.027995 -3.189890 2.232035 -13.227986 -45.110700 14.375435 176.072631 77.492869 172.358108 -0.525400 -18.971748 0.677131 -0.000760 0.026873 0.061655
-7.149985 51.162813 31.688442 177.413880 -34.883974 -9.939916 0.908925 13.409989 3.602834 0.383029 7.688213 2.094032 0.541616 9.609340 2.631257 0.402652 7.684745 2.092043 4.221434 18.568670 -1.303676 4.806978 -6.004438 -2.354178 1.383908 0.771706 -2.360220 -11.887541 -8.319111 8.895081 18.792920 -74.301477 -4.585380 8.249843 -7.687453 -15.003461 -9.589632 3.498240 -3.035813 5.863265 -3.120622 -2.409658 -67.614709 -76.733113 74.970652 11.279987 -10.815175 -2.560742 -9.009160 -33.255729 6.787334 23.807591 82.559941 19.313064 -3.319169 -6.859533 -1.405584 -0.081440 -4.284323 3.174649 -13.211889 -45.098621 14.377578 175.792050 77.504848 172.088109 -0.577988 -18.957190 0.642827 0.000356 0.026839 0.057923
-7.141962 51.153480 31.701848 177.400151 -34.895474 -9.929698 0.863257 13.445748 3.589869 0.434820 7.671135 2.092254 0.522704 9.644822 2.639192 0.405106 7.697752 2.094457 4.236274 18.610669 -1.299039 4.827673 -5.970519 -2.359884 1.396201 0.759563 -2.337440 -11.860606 -8.356013 8.864674 19.190247 -74.313633 -4.998923 8.266939 -7.691855 -14.997871 -9.588129 3.487153 -3.038885 5.874477 -3.133831 -2.399735 -67.603182 -76.725064 74.951200 11.308459 -10.887604 -2.485909 -8.897729 -33.036345 6.581727 24.281587 82.728951 19.772017 -3.320075 -6.901415 -1.470103 -0.141791 -5.193625 3.958463 -13.187374 -45.092356 14.377909 175.682444 77.518633 171.991375 -0.602140 -18.938932 0.626814 0.000210 0.025595 0.058229
-7.131812 51.142917 31.716137 177.362304 -34.907406 -9.916767 0.864074 13.468792 3.590117 0.439378 7.682257 2.095655 0.538803 9.641320 2.637196 0.400836 7.718353 2.099883 4.249476 18.648957 -1.288621 4.845484 -5.940993 -2.361086 1.410779 0.733964 -2.339788 -11.842848 -8.364004 8.859580 19.382827 -74.323525 -5.206711 8.301992 -7.696643 -14.989070 -9.582090 3.466432 -3.043153 5.853961 -3.114112 -2.370132 -67.598301 -76.734293 74.957165 11.336797 -10.935355 -2.446537 -8.801862 -32.807891 6.398210 24.499271 82.859624 19.972695 -3.343827 -6.942921 -1.523607 -0.206164 -5.947210 4.606683 -13.144982 -45.089498 14.397386 175.688404 77.530615 172.011250 -0.615823 -18.920482 0.621103 -0.000245 0.021734 0.062841
-7.120936 51.131223 31.730610 177.322474 -34.921357 -9.905684 0.863559 13.493284 3.592917 0.412044 7.723585 2.100648 0.590013 9.610683 2.627514 0.389513 7.750017 2.113446 4.267353 18.678846 -1.284377 4.864337 -5.906816 -2.360843 1.397650 0.746577 -2.297850 -11.780852 -8.414400 8.826732 19.617039 -74.346576 -5.461202 8.282762 -7.695017 -14.971516 -9.570305 3.433401 -3.053936 5.819725 -3.084238 -2.329020 -67.598228 -76.765390 74.981804 11.364420 -11.060622 -2.269516 -8.733678 -32.571686 6.224874 24.519343 82.956226 19.969779 -3.375730 -6.977563 -1.560520 -0.267977 -6.577716 5.136903 -13.119511 -45.083367 14.425282 175.676913 77.539497 172.009369 -0.627945 -18.904659 0.613265 0.003230 0.019235 0.052276
-7.107120 51.119339 31.744568 177.245194 -34.950869 -9.890181 0.895668 13.525675 3.613339 0.415616 7.736359 2.103624 0.600630 9.628885 2.632109 0.381833 7.773417 2.122185 4.290923 18.702155 -1.286484 4.885511 -5.865833 -2.359795 1.406496 0.723278 -2.300663 -11.752112 -8.454865 8.806874 19.518513 -74.363384 -5.396420 8.261311 -7.685662 -14.926753 -9.565513 3.418635 -3.060987 5.810373 -3.092843 -2.309874 -67.565926 -76.797406 74.964649 11.384669 -11.149289 -2.150729 -8.670436 -32.326074 6.077837 24.353371 83.023259 19.772824 -3.385494 -6.996393 -1.580716 -0.322951 -7.111366 5.562087 -13.079335 -45.061629 14.474606 175.581879 77.539562 171.928778 -0.653329 -18.891329 0.593008 0.002777 0.012698 0.047767
-7.089929 51.106154 31.759833 177.185251 -34.975725 -9.905916 0.917196 13.553981 3.656309 0.418846 7.748848 2.106727 0.603178 9.647477 2.633295 0.387207 7.782973 2.127808 4.312392 18.743558 -1.279943 4.908013 -5.818551 -2.358104 1.415260 0.709118 -2.308361 -11.748899 -8.473659 8.802716 19.285159 -74.379714 -5.157892 8.241489 -7.682179 -14.911631 -9.561189 3.423178 -3.058140 5.801554 -3.100785 -2.300123 -67.529629 -76.841820 74.940151 11.388647 -11.201908 -2.098676 -8.655091 -32.082839 5.954869 24.025078 83.070633 19.409986 -3.339126 -7.044650 -1.543204 -0.369342 -7.531408 5.851505 -13.076538 -45.043040 14.554665 175.458786 77.532926 171.826725 -0.680105 -18.880732 0.568854 0.000435 0.009923 0.041832
-7.075190 51.090086 31.776841 177.135856 -34.987239 -9.915101 0.926002 13.573416 3.684794 0.421933 7.760295 2.110978 0.590889 9.678413 2.646254 0.405771 7.778604 2.121613 4.333118 18.766051 -1.284063 4.930732 -5.744716 -2.344018 1.437678 0.674984 -2.332492 -11.831127 -8.453435 8.819236 19.030605 -74.398136 -4.828697 8.217126 -7.681771 -14.909238 -9.556412 3.427830 -3.051973 5.796199 -3.103587 -2.300185 -67.503229 -76.893490 74.919139 11.386069 -11.253163 -2.049822 -8.645784 -31.838281 5.798067 23.446078 83.080946 18.795989 -3.245945 -7.201728 -1.268925 -0.378181 -7.771193 5.850581 -13.087220 -45.042792 14.635285 175.346296 77.525803 171.720003 -0.714347 -18.863471 0.553004 0.008722 0.009512 0.029387
-7.061439 51.071036 31.796736 177.078945 -34.980719 -9.917663 0.937306 13.579177 3.708264 0.424421 7.770302 2.116319 0.613378 9.670303 2.645295 0.389855 7.808206 2.138187 4.356621 18.814611 -1.277569 4.955442 -5.689318 -2.342880 1.392185 0.693762 -2.322019 -11.801439 -8.510496 8.798184 18.771662 -74.409246 -4.534571 8.164496 -7.679582 -14.918044 -9.547793 3.431933 -3.047794 5.793276 -3.100960 -2.304144 -67.499041 -76.948127 74.912873 11.437267 -11.281073 -2.008322 -8.627096 -31.583462 5.616444 22.639024 83.055253 17.945003 -3.139353 -7.595753 -0.527547 -0.343102 -7.725253 5.361331 -13.103640 -45.067132 14.715567 175.004705 77.508610 171.392201 -0.787871 -18.837904 0.529295 0.010322 0.003615 0.027079
-7.046640 51.050940 31.818148 177.018365 -34.967313 -9.928111 0.952803 13.580751 3.741685 0.425509 7.779778 2.121370 0.619537 9.680814 2.651881 0.396087 7.805384 2.138319 4.377339 18.901209 -1.250452 4.983882 -5.652765 -2.353166 1.386127 0.681479 -2.328152 -11.812983 -8.517878 8.789134 18.718703 -74.421246 -4.439827 8.125416 -7.676657 -14.925608 -9.584728 3.478263 -3.023763 5.843744 -3.154099 -2.345019 -67.502839 -76.975831 74.914249 11.454752 -11.292654 -2.006678 -8.613985 -31.314101 5.435588 22.012063 83.000331 17.270187 -3.101886 -8.225381 0.637606 -0.279155 -7.410912 4.431723 -13.148848 -45.094336 14.835813 174.963279 77.500019 171.338523 -0.812193 -18.809895 0.515400 0.011545 -0.003927 0.025841
-7.034967 51.030797 31.838937 176.962078 -34.956212 -9.924409 0.961043 13.587838 3.758235 0.447363 7.772052 2.124873 0.558831 9.750745 2.676416 0.464600 7.735994 2.102236 4.386050 18.992144 -1.212434 5.014657 -5.591304 -2.347729 1.344198 0.703726 -2.300316 -11.799270 -8.539880 8.763772 18.369990 -74.432371 -4.063017 8.169249 -7.678231 -14.939563 -9.585323 3.477956 -3.024892 5.842858 -3.135955 -2.337142 -67.388700 -77.003891 74.770413 11.441926 -11.341431 -1.974011 -8.608532 -31.033563 5.209891 21.804165 82.904185 17.031376 -3.079922 -8.961264 1.911267 -0.197910 -6.958954 3.334476 -13.160208 -45.123092 14.912169 174.983538 77.495664 171.356371 -0.808145 -18.792892 0.498658 0.001493 -0.003684 0.030273
-7.023385 51.011146 31.860263 176.902177 -34.942720 -9.919010 0.973083 13.595195 3.775757 0.437724 7.789706 2.129727 0.570686 9.754210 2.680612 0.463375 7.745541 2.102664 4.420875 19.049039 -1.192774 5.045946 -5.525488 -2.338870 1.335094 0.690050 -2.289283 -11.780968 -8.564633 8.735974 18.162697 -74.451565 -3.838491 8.173627 -7.677156 -14.974467 -9.584798 3.464051 -3.017821 5.871171 -3.122141 -2.336407 -67.359149 -77.048149 74.705213 11.448954 -11.389113 -1.934426 -8.624097 -30.763571 4.960124 21.748965 82.815357 16.980383 -2.919948 -9.785772 3.026663 -0.111727 -6.119581 2.213047 -13.165460 -45.155037 14.979676 174.792728 77.487370 171.178064 -0.843383 -18.776287 0.476832 0.001838 0.000424 0.027332
-7.016251 50.992403 31.880674 176.854268 -34.929599 -9.891431 0.971269 13.609387 3.764555 0.428185 7.806489 2.136004 0.599960 9.731181 2.676542 0.444797 7.777062 2.118599 4.456130 19.108997 -1.172363 5.077083 -5.455962 -2.326428 1.337988 0.673548 -2.289428 -11.768180 -8.578418 8.713130 18.187805 -74.472243 -3.855879 8.266625 -7.675930 -15.041831 -9.618541 3.491960 -3.003883 5.935039 -3.155347 -2.354665 -67.373908 -77.077835 74.683810 11.462090 -11.428819 -1.893349 -8.639800 -30.507223 4.687463 21.881584 82.760257 17.143748 -2.746063 -10.700227 3.929109 -0.045569 -4.702839 1.140837 -13.139728 -45.180971 14.984789 174.193799 77.495660 170.614930 -0.951708 -18.751783 0.442415 0.009683 0.013627 0.027224
-7.013265 50.975570 31.899403 176.833647 -34.919857 -9.849202 0.950895 13.625534 3.724989 0.422178 7.823362 2.142752 0.593266 9.750023 2.688886 0.429319 7.810716 2.140807 4.505000 19.134260 -1.179886 5.107148 -5.386021 -2.310426 1.363252 0.623463 -2.320852 -11.752586 -8.585608 8.693454 18.405673 -74.496627 -4.072175 8.298354 -7.677754 -15.057270 -9.586752 3.424225 -3.035366 5.951310 -3.142605 -2.332232 -67.363514 -77.101546 74.634088 11.484798 -11.508167 -1.808116 -8.646114 -30.259080 4.418531 22.486657 82.714207 17.791216 -2.674709 -11.623430 4.646516 -0.020090 -3.241627 0.298599 -13.117408 -45.217943 14.961270 173.892795 77.487933 170.322118 -1.004829 -18.728206 0.420252 0.010789 0.015452 0.030674
